<svg width="100" height="100" viewBox="0 0 100 100" fill="none" xmlns="http://www.w3.org/2000/svg">
  <!-- Background Circle -->
  <circle cx="50" cy="50" r="48" fill="#4CAF50" stroke="#45a049" stroke-width="4"/>
  
  <!-- Heart Shape -->
  <path d="M50 75L35 60C30 55 30 45 35 40C40 35 50 40 50 40S60 35 65 40C70 45 70 55 65 60L50 75Z" fill="white"/>
  
  <!-- Hands/Protection Symbol -->
  <path d="M25 45C25 40 30 35 35 35C40 35 45 40 45 45V55C45 60 40 65 35 65C30 65 25 60 25 55V45Z" fill="white" opacity="0.8"/>
  <path d="M75 45C75 40 70 35 65 35C60 35 55 40 55 45V55C55 60 60 65 65 65C70 65 75 60 75 55V45Z" fill="white" opacity="0.8"/>
  
  <!-- Text -->
  <text x="50" y="90" font-family="Arial, sans-serif" font-size="8" font-weight="bold" text-anchor="middle" fill="#4CAF50">CHARITY</text>
</svg>
